<svg xmlns="http://www.w3.org/2000/svg" viewBox="0 0 306 306">
  <title>icon</title>
  <g id="Слой_2" data-name="Слой 2">
    <g id="Слой_1-2" data-name="Слой 1">
      <path d="M256,150H156V50a288.32,288.32,0,0,1,41.83-23.67A294.93,294.93,0,0,1,306,0a261.83,261.83,0,0,1-21.67,100.83A257.7,257.7,0,0,1,256,150Z" style="fill: #fcee21"/>
      <path d="M256,156H156V256a288.32,288.32,0,0,0,41.83,23.67A294.93,294.93,0,0,0,306,306a261.83,261.83,0,0,0-21.67-100.83A257.7,257.7,0,0,0,256,156Z" style="fill: #7abc33"/>
      <path d="M50,156H150V256a288.32,288.32,0,0,1-41.83,23.67A294.93,294.93,0,0,1,0,306,261.83,261.83,0,0,1,21.67,205.17,257.7,257.7,0,0,1,50,156Z" style="fill: #29abe2"/>
      <path d="M150,50V150H50a288.32,288.32,0,0,1-23.67-41.83A294.93,294.93,0,0,1,0,0,261.83,261.83,0,0,1,100.83,21.67,257.7,257.7,0,0,1,150,50Z" style="fill: #f7931e"/>
    </g>
  </g>
</svg>
